<?xml version="1.0" encoding="UTF-8" standalone="no"?>
<svg
   xmlns:dc="http://purl.org/dc/elements/1.1/"
   xmlns:cc="http://creativecommons.org/ns#"
   xmlns:rdf="http://www.w3.org/1999/02/22-rdf-syntax-ns#"
   xmlns:svg="http://www.w3.org/2000/svg"
   xmlns="http://www.w3.org/2000/svg"
   viewBox="0 0 623.62665 122.84"
   height="122.84"
   width="623.62665"
   xml:space="preserve"
   id="svg2"
   version="1.1"><metadata
     id="metadata8"><rdf:RDF><cc:Work
         rdf:about=""><dc:format>image/svg+xml</dc:format><dc:type
           rdf:resource="http://purl.org/dc/dcmitype/StillImage" /></cc:Work></rdf:RDF></metadata><defs
     id="defs6" /><g
     transform="matrix(1.3333333,0,0,-1.3333333,0,122.84)"
     id="g10"><g
       transform="scale(0.1)"
       id="g12"><path
         id="path14"
         style="fill:#d22027;fill-opacity:1;fill-rule:nonzero;stroke:none"
         d="M 0,139.758 V 2.47266 H 103.43 V 29.3086 H 29.6797 v 28.75 h 64 v 26.9141 h -64 v 27.8823 h 72.7423 v 26.903 H 0" /><path
         id="path16"
         style="fill:#d22027;fill-opacity:1;fill-rule:nonzero;stroke:none"
         d="M 361.766,139.758 328.664,84.6523 296.313,139.758 H 261.355 L 313.676,56.5469 V 2.47266 h 29.84 V 57.1016 l 52.129,82.6564 h -33.879" /><path
         id="path18"
         style="fill:#d22027;fill-opacity:1;fill-rule:nonzero;stroke:none"
         d="M 559.688,139.758 V 2.47266 H 663.234 V 29.3086 h -73.777 v 28.75 h 63.961 v 26.9141 h -63.961 v 27.8823 h 72.738 v 26.903 H 559.688" /><path
         id="path20"
         style="fill:#d22027;fill-opacity:1;fill-rule:nonzero;stroke:none"
         d="M 915.215,140.16 884.773,46.7227 856.574,139.836 H 824.66 L 871.063,1.4375 h 25.941 l 30.621,89.7773 30.758,-89.7773 h 26.027 l 46.32,138.3985 H 999.473 L 971.359,46.7227 940.902,140.16 h -25.687" /><path
         id="path22"
         style="fill:#d22027;fill-opacity:1;fill-rule:nonzero;stroke:none"
         d="M 1198.27,139.758 V 2.47266 h 103.44 V 29.3086 h -73.78 v 28.75 h 64.04 v 26.9141 h -64.04 v 27.8823 h 72.81 v 26.903 h -102.47" /><path
         id="path24"
         style="fill:#d22027;fill-opacity:1;fill-rule:nonzero;stroke:none"
         d="m 1533.55,104.379 18.11,-44.4845 h -36.16 z m -13.29,36.348 -58.25,-138.25434 h 30.45 l 12.41,30.75394 h 57.44 l 12.48,-30.75394 h 31.26 L 1547.81,140.727 h -27.55" /><path
         id="path26"
         style="fill:#d22027;fill-opacity:1;fill-rule:nonzero;stroke:none"
         d="m 1832.48,72.9922 c 14.58,0 22.96,7.9101 22.96,19.4922 v 0.3984 c 0,12.9302 -8.95,19.6402 -23.52,19.6402 h -29.73 V 72.9922 Z M 1772.3,139.77 h 62.19 c 17.24,0 30.61,-4.883 39.55,-13.907 7.66,-7.668 11.68,-18.449 11.68,-31.3864 v -0.4024 c 0,-22.1953 -11.92,-36.1719 -29.15,-42.6367 l 33.18,-49.04297 h -34.96 l -29.07,44.01567 h -0.41 -23.12 V 2.39453 H 1772.3 V 139.77" /><path
         id="path28"
         style="fill:#d22027;fill-opacity:1;fill-rule:nonzero;stroke:none"
         d="m 2252.33,22.3672 17.64,21.4844 c 12.25,-10.2149 25.13,-16.6914 40.6,-16.6914 12.25,0 19.49,4.8632 19.49,12.9296 v 0.3907 c 0,7.5976 -4.59,11.5156 -27.22,17.4218 -27.4,7.1016 -45.11,14.6875 -45.11,42.0118 v 0.4019 c 0,24.903 19.81,41.356 47.52,41.356 19.82,0 36.75,-6.219 50.51,-17.402 l -15.55,-22.762 c -11.99,8.387 -23.84,13.582 -35.36,13.582 -11.36,0 -17.4,-5.36 -17.4,-12.07 v -0.399 c 0,-9.0155 5.72,-11.8944 29.24,-17.9687 27.55,-7.2578 43.1,-17.246 43.1,-41.2109 v -0.4023 c 0,-27.3047 -20.54,-42.636756 -49.87,-42.636756 -20.62,0 -41.24,7.269536 -57.59,21.964856" /><path
         id="path30"
         style="fill:#d22027;fill-opacity:1;fill-rule:nonzero;stroke:none"
         d="m 2532.57,2.48438 h 29.97 V 139.77 h -29.97 V 2.48438" /><path
         id="path32"
         style="fill:#d22027;fill-opacity:1;fill-rule:nonzero;stroke:none"
         d="M 2833.04,139.758 V 55.1797 l -63.63,84.5783 h -27.64 V 2.47266 h 29.56 V 89.6914 l 65.74,-87.21874 h 25.37 V 139.758 h -29.4" /><path
         id="path34"
         style="fill:#d22027;fill-opacity:1;fill-rule:nonzero;stroke:none"
         d="m 3034.43,70.6758 v 0.4023 c 0,39.0509 29.16,71.0819 70.89,71.0819 25.61,0 40.92,-8.711 53.49,-21.25 l -18.94,-22.1873 c -10.55,9.6603 -21.19,15.5663 -34.8,15.5663 -22.79,0 -39.39,-19.246 -39.39,-42.8202 v -0.3907 c 0,-23.5547 16.11,-43.2031 39.39,-43.2031 15.55,0 25.06,6.3086 35.69,16.1328 l 19.09,-19.4062 C 3145.84,9.42578 3130.29,0.00390625 3104.19,0.00390625 c -40.03,0 -69.76,31.23049375 -69.76,70.67189375" /><path
         id="path36"
         style="fill:#d22027;fill-opacity:1;fill-rule:nonzero;stroke:none"
         d="M 3329.09,139.758 V 2.47266 h 103.44 V 29.3086 h -73.79 v 28.75 h 64.11 v 26.9141 h -64.11 v 27.8823 h 72.83 v 26.903 h -102.48" /><path
         id="path38"
         style="fill:#d22027;fill-opacity:1;fill-rule:nonzero;stroke:none"
         d="m 3835.45,140.727 -38.97,-11.75 6.11,-24.676 23.68,5.828 V 2.48438 h 29.56 V 140.727 h -20.38" /><path
         id="path40"
         style="fill:#d22027;fill-opacity:1;fill-rule:nonzero;stroke:none"
         d="m 4106.59,94.8789 v 0.3984 c 0,12.0587 -9,20.9177 -23.91,20.9177 -14.74,0 -23.12,-8.613 -23.12,-20.7536 V 95.043 c 0,-12.2266 8.94,-20.6055 23.68,-20.6055 14.82,0 23.35,8.6328 23.35,20.4414 m -73.61,-78.5859 15.79,22.9961 c 9.9,-8.0547 18.2,-11.7383 29.65,-11.7383 16.75,0 25.61,12.6953 27.62,31.1445 -6.61,-5.664 -15.7,-9.414 -27.62,-9.414 -29.49,0 -48.5,16.4453 -48.5,44.3242 v 0.3906 c 0,27.7149 21.18,48.0899 51.79,48.0899 18.29,0 28.93,-4.484 39.24,-14.867 9.66,-9.824 16.09,-24.754 16.09,-51.8245 v -0.4023 c 0,-44.5586 -20.77,-74.9101687 -59.43,-74.9101687 -19.75,0 -33.11,6.6406287 -44.63,16.2109687" /><path
         id="path42"
         style="fill:#d22027;fill-opacity:1;fill-rule:nonzero;stroke:none"
         d="m 4300.26,20.6094 18.11,21.7969 c 10.25,-9.4336 20.38,-14.9336 32.47,-14.9336 13.86,0 22.64,6.8671 22.64,19.0156 v 0.3984 c 0,11.8164 -9.9,18.6836 -24.08,18.6836 -8.55,0 -16.28,-2.3164 -22.73,-5.1172 l -17.23,11.6602 3.86,67.6567 h 83.45 v -26.446 h -57.82 l -1.62,-23.7888 c 5.48,1.3554 10.3,2.3125 17.89,2.3125 26.41,0 47.52,-12.8594 47.52,-44.0118 v -0.3242 c 0,-28.9844 -20.3,-47.50779375 -51.55,-47.50779375 -21.75,0 -37.7,7.89843375 -50.91,20.60549375" /><path
         id="path44"
         style="fill:#d22027;fill-opacity:1;fill-rule:nonzero;stroke:none"
         d="m 4647.44,46.1641 v 0.4023 c 0,11.4922 -8.85,20.0469 -23.68,20.0469 -14.67,0 -23.21,-8.3086 -23.21,-19.8906 v -0.3243 c 0,-11.6601 8.88,-20.4492 23.69,-20.4492 14.75,0 23.2,8.3906 23.2,20.2149 m -61.22,-31.3946 c -9.99,9.9883 -16.11,24.7657 -16.11,51.9922 v 0.3985 c 0,42.3358 19.01,74.9998 59.53,74.9998 18.44,0 30.45,-5.508 42.45,-15.164 l -15.62,-23.332 c -9.03,6.867 -16.11,11.016 -27.8,11.016 -16.84,0 -25.38,-13.731 -27.31,-31.7777 6.78,4.4766 14.67,8.7813 28.13,8.7813 26.98,0 47.67,-15.0977 47.67,-43.7617 v -0.3985 c 0,-28.0273 -22.3,-47.51949375 -51.79,-47.51949375 -17.64,0 -29.71,5.10547375 -39.15,14.76559375" /><path
         id="path46"
         style="fill:#d22027;fill-opacity:1;fill-rule:nonzero;stroke:none"
         d="m 4248.84,492.063 h 188.94 l -52.54,206.164 h -13.25 z m -3377.481,0 H 1060.3 l -52.45,206.164 H 994.59 Z M 4498.67,921.27 C 4623.51,461.406 4673.64,281.762 4676.19,272.289 H 4482.2 l -26.35,88.691 h -282.68 l -60.66,-88.691 h -225.16 c -220.29,0 -308.96,146.504 -231.84,362.856 h 83.79 c 44.41,0 65.7,18.683 78.96,59.609 11.57,35.723 6.34,61.332 -55.84,61.332 H 3629.08 L 3451.71,272.289 h -894.18 c -220.04,0 -308.79,146.504 -231.67,362.856 h 83.78 c 44.35,0 65.78,18.683 79.04,59.609 11.41,35.723 6.51,61.332 -55.98,61.332 H 2299.75 L 2122.21,272.289 h -281.33 c -220.02,0 -308.71,146.504 -231.59,362.856 h 83.86 c 44.35,0 65.81,18.683 78.97,59.609 11.33,35.723 6.51,61.332 -55.83,61.332 H 1583.11 L 1405.57,272.289 h -300.85 l -26.1,88.691 H 795.77 L 734.875,272.289 H 340.531 C 98.9297,272.289 -52.293,360.98 16.7891,640.246 59.3594,814.066 197.535,921.27 435.961,921.27 H 725.16 L 664.258,754.418 H 439.129 c -73.941,0 -184.121,-11.953 -216.973,-141.371 C 194.359,498.914 220.469,442.688 376.758,442.688 H 634.777 L 941.965,921.27 h 182.605 l 128.05,-483.766 190.7,483.766 h 241.57 c 101.93,0 172.71,0 231.67,-35.762 67.4,-42.492 87.16,-119.153 64.26,-190.754 -8.43,-27.281 -34.54,-78.367 -56.06,-102.215 -63.95,-69.734 -137.94,-78.332 -162.6,-78.332 -5.06,-68.129 31.17,-76.703 101.95,-76.703 h 115.03 l 180.91,483.766 h 241.4 c 102.01,0 172.55,0 231.76,-35.762 67.39,-42.492 87.15,-119.153 64.02,-190.754 -8.04,-27.281 -34.54,-78.367 -55.83,-102.215 -64.11,-69.734 -137.94,-78.332 -162.68,-78.332 -4.99,-68.129 31.24,-76.703 101.79,-76.703 h 123.46 l 180.67,483.766 h 488.1 l -62.35,-161.805 h -282.67 l -34.55,-90.227 h 239.87 l -50.68,-144.683 h -237 l -32.85,-87.051 h 396.19 l 180.76,483.766 h 241.64 c 101.94,0 172.72,0 231.84,-35.762 67.24,-42.492 86.99,-119.153 64.02,-190.754 -8.35,-27.281 -34.47,-78.367 -55.83,-102.215 -64.18,-69.734 -138.09,-78.332 -162.84,-78.332 -4.81,-68.129 31.25,-76.703 102.03,-76.703 h 101.94 l 315.55,483.766 h 170.86" /></g></g></svg>
